<?xml version="1.0" standalone="no"?>
<!DOCTYPE svg PUBLIC "-//W3C//DTD SVG 20010904//EN"
 "http://www.w3.org/TR/2001/REC-SVG-20010904/DTD/svg10.dtd">
<svg version="1.0" xmlns="http://www.w3.org/2000/svg"
 width="260.000000pt" height="260.000000pt" viewBox="0 0 260.000000 260.000000"
 preserveAspectRatio="xMidYMid meet">
<metadata>
Created by potrace 1.14, written by Peter Selinger 2001-2017
</metadata>
<g transform="translate(0.000000,260.000000) scale(0.100000,-0.100000)"
fill="#000000" stroke="none">
<path d="M0 1300 l0 -1300 1300 0 1300 0 0 1300 0 1300 -1300 0 -1300 0 0
-1300z m1592 884 c199 -45 305 -148 330 -322 10 -67 9 -89 -5 -148 -32 -130
-122 -238 -254 -306 -35 -18 -63 -36 -63 -40 0 -4 37 -19 83 -33 110 -33 197
-87 268 -164 78 -85 101 -146 101 -267 -1 -155 -58 -291 -163 -389 -53 -50
-179 -114 -263 -134 -94 -23 -294 -30 -516 -19 -163 8 -255 7 -378 -2 -174
-13 -186 -11 -180 31 2 19 13 27 48 37 72 21 94 35 107 72 9 26 12 226 12 763
1 774 1 780 -46 805 -11 6 -48 14 -83 18 -73 7 -90 17 -90 48 0 44 11 46 269
47 136 0 311 7 391 14 171 16 330 12 432 -11z"/>
<path d="M1070 1744 l0 -367 129 5 c110 5 137 9 184 31 87 39 133 112 162 255
28 134 0 295 -63 355 -57 55 -186 87 -349 87 l-63 0 0 -366z"/>
<path d="M1138 1293 l-68 -4 0 -399 c0 -278 3 -407 11 -424 15 -33 68 -41 200
-32 126 8 193 33 264 97 114 105 159 285 124 499 -21 133 -92 236 -178 260
-34 9 -201 11 -353 3z"/>
</g>
</svg>
